<svg width="92" height="92" viewBox="0 0 92 92" fill="none" xmlns="http://www.w3.org/2000/svg">
<circle opacity="0.5" cx="46" cy="46" r="46" fill="white"/>
<g opacity="0.3">
<path opacity="0.3" d="M61.6969 55.055H61.7412L63.4441 54.5601C63.5025 54.5419 63.5516 54.501 63.5809 54.4463C63.6101 54.3915 63.6172 54.3273 63.6006 54.2673C63.5839 54.2072 63.5449 54.1563 63.4919 54.1253C63.4389 54.0943 63.3761 54.0857 63.317 54.1014L61.6259 54.5903C61.5723 54.6082 61.5268 54.6454 61.498 54.6949C61.4691 54.7443 61.4587 54.8028 61.4688 54.8595C61.4789 54.9162 61.5088 54.9672 61.5529 55.0031C61.597 55.0391 61.6523 55.0575 61.7087 55.055H61.6969Z" fill="black"/>
<path opacity="0.3" d="M63.4441 56.395C63.4923 56.3905 63.538 56.371 63.575 56.3392C63.612 56.3074 63.6385 56.2647 63.651 56.217C63.6604 56.1857 63.6633 56.1527 63.6596 56.1202C63.6559 56.0877 63.6457 56.0563 63.6296 56.028C63.6135 55.9997 63.5919 55.9751 63.5661 55.9557C63.5403 55.9363 63.5108 55.9225 63.4796 55.9152L61.7767 55.4746C61.7176 55.4616 61.6558 55.4725 61.6044 55.5049C61.553 55.5374 61.516 55.589 61.501 55.6488C61.4861 55.7085 61.4945 55.7719 61.5244 55.8255C61.5543 55.8792 61.6034 55.9189 61.6614 55.9363L63.3672 56.3769C63.3916 56.3874 63.4176 56.3935 63.4441 56.395V56.395Z" fill="black"/>
<path opacity="0.3" d="M62.5749 58.0001C62.631 57.9945 62.6833 57.9688 62.7227 57.9277C62.7658 57.8831 62.79 57.8229 62.79 57.7602C62.79 57.6975 62.7658 57.6373 62.7227 57.5927L61.4633 56.3404C61.4418 56.3163 61.4158 56.2969 61.3867 56.2835C61.3577 56.27 61.3263 56.2628 61.2944 56.2622C61.2625 56.2617 61.2309 56.2678 61.2014 56.2802C61.1719 56.2926 61.1452 56.311 61.123 56.3343C61.1007 56.3576 61.0834 56.3854 61.0721 56.4158C61.0607 56.4462 61.0556 56.4787 61.057 56.5112C61.0584 56.5437 61.0663 56.5756 61.0803 56.6048C61.0942 56.6341 61.1139 56.6601 61.138 56.6814L62.3916 57.9397C62.4164 57.9622 62.4455 57.9792 62.477 57.9896C62.5086 58 62.5419 58.0035 62.5749 58.0001V58.0001Z" fill="black"/>
<path opacity="0.3" d="M61.0465 58.951H61.0909C61.1211 58.9424 61.1492 58.9276 61.1737 58.9077C61.1982 58.8877 61.2185 58.8629 61.2334 58.8347C61.2483 58.8065 61.2575 58.7756 61.2604 58.7437C61.2634 58.7119 61.26 58.6797 61.2505 58.6492L60.7834 56.9231C60.7655 56.8635 60.7255 56.8133 60.6719 56.7835C60.6182 56.7536 60.5552 56.7464 60.4965 56.7634C60.4377 56.7804 60.3877 56.8202 60.3574 56.8743C60.327 56.9284 60.3186 56.9925 60.334 57.0529L60.813 58.779C60.8275 58.8302 60.8583 58.8749 60.9007 58.9061C60.943 58.9373 60.9944 58.9531 61.0465 58.951Z" fill="black"/>
</g>
<path d="M14.861 32.1535L19.0975 34.6431L28.3748 36.0131C28.3748 36.0131 35.1479 25.6262 36.1857 23.9936C37.2234 22.361 38.4384 21.3139 41.25 21.3169L40.7178 29.6035C40.6292 29.8721 35.0208 36.9245 31.3223 40.769C30.0156 42.124 29.2144 42.471 27.1833 41.8916C21.9712 40.416 15.6533 36.0433 15.1448 34.9509C14.4619 33.5235 14.9112 32.1837 14.861 32.1535Z" fill="#FFEDE5"/>
<path d="M16.6026 26.9C16.0468 25.0472 13.7762 23.5383 11.6683 24.1418C11.3344 24.236 11.0143 24.375 10.7163 24.5553C8.64683 25.7624 7.00011 28.7046 7.00011 31.1248C6.99335 31.5335 7.0492 31.9408 7.16566 32.3319V32.3319C7.71852 34.1818 9.98314 35.7027 12.0999 35.0961C12.4333 35.0006 12.7533 34.8616 13.0519 34.6827C15.1037 33.4756 16.7681 30.5303 16.7681 28.1101C16.7741 27.7005 16.7183 27.2923 16.6026 26.9Z" fill="#455A64"/>
<path d="M13.0489 34.6647C15.1007 33.4576 16.7651 30.5124 16.7651 28.0922C16.7651 25.672 15.1007 24.6942 13.0489 25.9013C10.9972 27.1084 9.34156 30.0507 9.34156 32.4709C9.34156 34.8911 10.9972 35.8718 13.0489 34.6647Z" fill="#37474F"/>
<path d="M13.0488 28.5837C13.8382 28.119 14.4797 28.4962 14.4797 29.4257C14.4529 29.9323 14.3093 30.4254 14.0607 30.8648C13.812 31.3042 13.4654 31.6776 13.0488 31.9545C12.2595 32.4192 11.6209 32.042 11.6209 31.1126C11.6472 30.6061 11.7902 30.1131 12.0383 29.6737C12.2864 29.2343 12.6327 28.8608 13.0488 28.5837V28.5837Z" fill="#455A64"/>
<path d="M13.5395 29.9811C13.5301 30.1547 13.4807 30.3235 13.3954 30.4739C13.3102 30.6244 13.1914 30.7523 13.0488 30.8472C13.0019 30.8816 12.9475 30.9038 12.8902 30.9117C12.833 30.9196 12.7747 30.913 12.7206 30.8925L12.6851 30.8713C12.6429 30.8344 12.6096 30.7878 12.5881 30.7354C12.5665 30.6831 12.5572 30.6263 12.561 30.5696C12.5703 30.3963 12.6194 30.2278 12.7041 30.0774C12.7888 29.927 12.9068 29.7989 13.0488 29.7035C13.0956 29.669 13.1501 29.6469 13.2073 29.639C13.2645 29.6311 13.3228 29.6377 13.3769 29.6582L13.4124 29.6793C13.4554 29.7159 13.4893 29.7622 13.5114 29.8147C13.5335 29.8671 13.5432 29.9241 13.5395 29.9811V29.9811Z" fill="#37474F"/>
<path d="M21.389 34.6072C21.3798 34.7805 21.3309 34.9492 21.2462 35.0996C21.1615 35.2501 21.0433 35.3781 20.9012 35.4733C20.8376 35.5152 20.7639 35.5382 20.6883 35.5397C20.6309 35.5386 20.5748 35.5219 20.5257 35.4914L12.7208 30.8925L12.6853 30.8713C12.643 30.8344 12.6098 30.7878 12.5882 30.7354C12.5667 30.6831 12.5574 30.6263 12.5611 30.5696C12.5705 30.3963 12.6195 30.2278 12.7042 30.0774C12.7889 29.927 12.907 29.7989 13.0489 29.7035C13.0958 29.669 13.1502 29.6469 13.2075 29.639C13.2647 29.6311 13.323 29.6377 13.3771 29.6582L13.4126 29.6793L21.2175 34.2783C21.2735 34.3111 21.3194 34.3594 21.3497 34.4176C21.38 34.4758 21.3937 34.5415 21.389 34.6072V34.6072Z" fill="#FAFAFA"/>
<path d="M29.049 34.2363C28.4961 32.3864 26.2315 30.8564 24.1147 31.463C23.7805 31.559 23.4597 31.6979 23.1598 31.8764C21.108 33.0835 19.4436 36.0288 19.4436 38.449C19.4385 38.8576 19.4944 39.2646 19.6091 39.6561C20.1649 41.5059 22.4266 43.0269 24.5434 42.4233C24.8766 42.3273 25.1965 42.1883 25.4954 42.0099C27.5471 40.8028 29.2116 37.8575 29.2116 35.4403C29.2184 35.0328 29.1636 34.6267 29.049 34.2363V34.2363Z" fill="#455A64"/>
<path d="M25.4984 41.9976C27.5501 40.7905 29.2146 37.8452 29.2146 35.428C29.2146 33.0108 27.5501 32.0271 25.4984 33.2341C23.4466 34.4412 21.7822 37.3865 21.7822 39.8067C21.7822 42.2269 23.4437 43.2077 25.4984 41.9976Z" fill="#37474F"/>
<path d="M25.4983 35.9108C26.2877 35.443 26.9263 35.8203 26.9263 36.7527C26.8995 37.2587 26.7563 37.7511 26.5082 38.1899C26.2601 38.6288 25.9141 39.0017 25.4983 39.2785C24.7089 39.7433 24.0674 39.3661 24.0674 38.4366C24.0947 37.9304 24.2385 37.438 24.4871 36.9991C24.7357 36.5603 25.0822 36.1874 25.4983 35.9108V35.9108Z" fill="#455A64"/>
<path d="M25.9863 37.3143C25.9772 37.4876 25.9283 37.6563 25.8435 37.8067C25.7588 37.9571 25.6406 38.0852 25.4985 38.1804C25.4516 38.2149 25.3972 38.237 25.34 38.2449C25.2827 38.2528 25.2245 38.2462 25.1703 38.2257C25.1572 38.2211 25.1452 38.2139 25.1349 38.2046C25.0921 38.1679 25.0583 38.1215 25.0362 38.0691C25.0141 38.0167 25.0044 37.9597 25.0077 37.9028C25.0175 37.7293 25.0669 37.5606 25.1521 37.4101C25.2374 37.2597 25.356 37.1318 25.4985 37.0367C25.5453 37.0032 25.5993 36.9819 25.656 36.9746C25.7127 36.9672 25.7702 36.974 25.8237 36.9945L25.8592 37.0156C25.9021 37.0515 25.9361 37.0973 25.9582 37.1492C25.9803 37.2012 25.9899 37.2578 25.9863 37.3143V37.3143Z" fill="#37474F"/>
<path d="M27.1688 38.0231C27.1603 38.1966 27.1117 38.3655 27.0269 38.5161C26.9421 38.6666 26.8236 38.7945 26.681 38.8892C26.6174 38.9311 26.5437 38.954 26.4681 38.9556C26.4107 38.9542 26.3547 38.9375 26.3055 38.9073L25.1702 38.2374C25.1571 38.2328 25.1451 38.2257 25.1348 38.2163C25.092 38.1796 25.0582 38.1332 25.0361 38.0808C25.014 38.0284 25.0043 37.9714 25.0076 37.9145C25.0174 37.741 25.0668 37.5723 25.152 37.4219C25.2373 37.2714 25.3559 37.1435 25.4984 37.0484C25.5452 37.015 25.5992 36.9936 25.6559 36.9863C25.7126 36.9789 25.7701 36.9857 25.8236 37.0062L25.8591 37.0273L26.9973 37.6942C27.0533 37.727 27.0991 37.7753 27.1295 37.8335C27.1598 37.8916 27.1734 37.9574 27.1688 38.0231V38.0231Z" fill="#FAFAFA"/>
<path d="M27.1688 38.0234C27.1601 38.1972 27.1114 38.3665 27.0266 38.5175C26.9419 38.6685 26.8235 38.797 26.681 38.8925C26.6336 38.926 26.5791 38.9473 26.522 38.9547C26.4648 38.962 26.4068 38.9552 26.3528 38.9348L26.3173 38.9136C26.2741 38.8773 26.2401 38.8309 26.218 38.7785C26.1959 38.726 26.1863 38.6689 26.1902 38.6119C26.2001 38.438 26.2497 38.2689 26.3349 38.1181C26.4201 37.9672 26.5386 37.8387 26.681 37.7428C26.7283 37.7093 26.7828 37.688 26.84 37.6806C26.8971 37.6732 26.9551 37.6801 27.0091 37.7005L27.0446 37.7216C27.0871 37.7585 27.1204 37.805 27.142 37.8574C27.1636 37.9098 27.1727 37.9667 27.1688 38.0234V38.0234Z" fill="#E0E0E0"/>
<path d="M17.5692 37.0753C15.7747 35.6781 14.054 35.6872 14.3645 32.2712C14.6276 30.7623 14.9942 30.6537 16.4339 30.0803C17.0666 29.8298 17.9122 29.6397 18.4177 30.2312C18.4732 30.3055 18.5345 30.3751 18.601 30.4394C18.7501 30.5364 18.9212 30.5925 19.0977 30.6024C19.4348 30.6192 19.7552 30.757 20.0023 30.9916C20.1709 31.1878 20.2359 31.4564 20.4015 31.6525C20.5605 31.8063 20.7316 31.9465 20.9129 32.072C21.0429 32.187 21.1477 32.3287 21.2205 32.4878C21.2933 32.6469 21.3326 32.8198 21.3357 32.9954C21.3238 33.1961 21.2689 33.3918 21.1749 33.5685C21.0809 33.7452 20.9501 33.8988 20.7917 34.0184L19.887 33.4873C19.5175 33.2278 18.7547 34.1542 19.0829 34.6431C19.6062 35.4216 17.5692 37.0753 17.5692 37.0753Z" fill="#FFEDE5"/>
<path d="M38.4711 43.9436C37.8975 41.5777 37.732 35.666 37.732 35.666L54.5186 36.179L53.605 39.9119C53.4543 40.7534 53.3742 41.6065 53.3656 42.4619C53.3656 42.4619 51.7366 45.543 46.9058 46.0831C43.9375 46.3719 40.9616 45.6171 38.4711 43.9436Z" fill="#FFEDE5"/>
<path d="M37.7232 35.6662C37.7025 35.8533 37.8208 37.6428 37.8208 37.6428C39.9672 39.4867 46.8527 40.4191 54.0811 37.9657L55.6125 31.9303C55.6125 31.9303 50.4152 29.6007 53.9274 21.7848L50.152 21.483L43.4498 21.311H41.2502C39.4417 23.1046 37.9132 25.1706 36.718 27.437C35.84 29.1088 34.7225 31.5592 37.7232 35.6662Z" fill="#455A64"/>
<path d="M47.2222 35.7207C50.2466 34.9331 51.0034 33.0047 51.2192 31.5864C51.2192 31.5864 51.7898 35.7207 47.4675 36.6833C42.9087 37.6973 41.0344 34.0127 41.0344 34.0127C41.0344 34.0127 43.5739 36.6713 47.2222 35.7207Z" fill="#37474F"/>
<path d="M72.9667 81.7256C73.8536 82.3865 75.8965 82.5464 77.6969 81.6833C79.4974 80.8203 80.2483 78.3639 79.9113 76.4657C79.5033 74.1512 78.3828 72.8867 78.099 71.4926C77.8152 70.0984 78.099 68.1731 77.6674 66.9298C77.4894 66.4519 77.2124 66.0189 76.8552 65.6606C76.498 65.3022 76.0691 65.0269 75.5979 64.8536C75.2975 64.7351 74.9745 64.6885 74.6536 64.7172C74.3328 64.746 74.0227 64.8494 73.7472 65.0196L73.215 65.3395L72.9667 81.7256Z" fill="#263238"/>
<path d="M70.8529 72.8985L72.2543 77.1897C72.2543 77.1897 71.3673 80.2496 71.867 81.0644C72.6031 82.2715 73.901 82.4827 76.0858 81.8007C78.584 81.0252 79.1723 78.7166 79.0422 76.9241C78.8648 74.3681 76.5499 72.4458 76.816 69.9834C76.9461 68.7763 76.7835 67.4274 76.1361 66.3893C75.4117 65.2305 74.2232 65.0132 72.9904 65.3904C71.932 65.7163 71.0037 66.3953 70.1079 67.0321C69.8507 67.1992 69.6178 67.4023 69.4161 67.6356C69.2556 67.8541 69.1354 68.1005 69.0613 68.3629C68.8992 68.8903 68.8508 69.4472 68.9194 69.9955C68.9845 70.5085 69.3067 70.8072 69.6053 71.2025L70.8529 72.8985Z" fill="#1D1617"/>
<path d="M64.8128 70.868C64.8985 70.8348 69.1794 68.0404 69.6406 67.8291C70.1018 67.6179 71.2371 67.3191 72.3339 69.9114C73.1174 71.7552 71.991 72.4372 71.991 72.4372L66.9651 75.4851L64.8128 70.868Z" fill="#FFEDE5"/>
<path d="M72.2541 77.1899C73.1599 76.7278 74.1627 76.4988 75.175 76.523C75.2502 76.5302 75.3259 76.5184 75.3956 76.4887C75.4653 76.459 75.5268 76.4124 75.5746 76.3528C75.6225 76.2932 75.6553 76.2225 75.6702 76.147C75.685 76.0714 75.6815 75.9933 75.6599 75.9194V75.9194C75.6314 75.8315 75.578 75.7541 75.5064 75.6972C75.4349 75.6402 75.3483 75.6063 75.2578 75.5996C74.5808 75.5453 72.937 75.5241 71.8461 76.4415C71.5564 77.039 72.2541 77.1899 72.2541 77.1899Z" fill="#1D1617"/>
<path d="M71.7397 75.2282C72.6205 74.719 73.6103 74.4382 74.6222 74.4104C74.6984 74.4143 74.7743 74.3987 74.8432 74.3653C74.9121 74.3318 74.9718 74.2814 75.0169 74.2186C75.062 74.1558 75.0912 74.0826 75.1018 74.0054C75.1123 73.9283 75.104 73.8497 75.0775 73.7767V73.7767C75.0449 73.69 74.9879 73.6152 74.9137 73.5615C74.8396 73.5078 74.7515 73.4777 74.6606 73.4749C73.9806 73.4568 72.3369 73.5262 71.2933 74.4979C71.0361 75.1165 71.7397 75.2282 71.7397 75.2282Z" fill="#1D1617"/>
<path opacity="0.3" d="M72.2541 77.1899C73.1599 76.7278 74.1627 76.4988 75.175 76.523C75.2502 76.5302 75.3259 76.5184 75.3956 76.4887C75.4653 76.459 75.5268 76.4124 75.5746 76.3528C75.6225 76.2932 75.6553 76.2225 75.6702 76.147C75.685 76.0714 75.6815 75.9933 75.6599 75.9194V75.9194C75.6314 75.8315 75.578 75.7541 75.5064 75.6972C75.4349 75.6402 75.3483 75.6063 75.2578 75.5996C74.5808 75.5453 72.937 75.5241 71.8461 76.4415C71.5564 77.039 72.2541 77.1899 72.2541 77.1899Z" fill="black"/>
<path opacity="0.3" d="M71.7397 75.2282C72.6205 74.719 73.6103 74.4382 74.6222 74.4104C74.6984 74.4143 74.7743 74.3987 74.8432 74.3653C74.9121 74.3318 74.9718 74.2814 75.0169 74.2186C75.062 74.1558 75.0912 74.0826 75.1018 74.0054C75.1123 73.9283 75.104 73.8497 75.0775 73.7767V73.7767C75.0449 73.69 74.9879 73.6152 74.9137 73.5615C74.8396 73.5078 74.7515 73.4777 74.6606 73.4749C73.9806 73.4568 72.3369 73.5262 71.2933 74.4979C71.0361 75.1165 71.7397 75.2282 71.7397 75.2282Z" fill="black"/>
<path d="M28.1119 82.1901L22.5509 79.9389C22.6455 78.4753 23.0003 76.5258 22.6307 72.6964L28.9397 71.4712V77.917L28.1119 82.1901Z" fill="#FFEDE5"/>
<path d="M12.2446 87.1756C12.0969 87.6326 12.1243 88.1297 12.3215 88.5668C12.5107 88.9742 14.595 90.1722 17.4066 89.9791C19.4915 89.83 21.4993 89.1141 23.2218 87.9059C24.2921 87.1817 25.4096 87.0459 26.7991 86.9644C28.1886 86.8829 30.0216 86.1737 30.3261 85.5098C30.6306 84.8459 30.2788 83.6992 30.2788 83.6992L12.2446 87.1756Z" fill="#263238"/>
<path d="M23.5885 78.2189L23.3667 78.1706C23.2462 78.1376 23.1202 78.1314 22.9972 78.1525C22.8606 78.1955 22.7394 78.2784 22.6483 78.3909C22.3731 78.749 22.1334 79.1341 21.9329 79.5406C21.3416 80.5214 20.1058 81.3362 18.7547 82.0755C17.8353 82.5795 16.9365 82.9808 15.9875 83.4063C15.0385 83.8318 13.7377 84.1215 12.9808 84.6436C11.8781 85.401 11.7332 87.3082 12.9808 88.0596C14.0629 88.7114 16.9158 89.4146 19.9077 88.5485C21.5397 88.0777 23.349 86.3003 25.4865 86.1343C26.8464 86.0257 29.4215 85.6364 30.2966 84.5832C30.6188 84.1155 30.1872 82.6307 29.8324 81.3512C29.4451 79.954 29.3032 77.4916 28.8479 77.6153C28.8479 77.6153 28.9721 77.9624 28.7947 78.1495C28.6173 78.3366 27.9935 78.7108 27.8102 78.8677C27.5037 79.1868 27.2563 79.56 27.08 79.9691C27.0067 80.1539 26.8701 80.3051 26.6957 80.3946C26.4651 80.4821 26.2936 80.3343 26.1044 80.2407C25.8486 80.1239 25.5605 80.1036 25.2914 80.1834C25.3173 79.9062 25.3658 79.6316 25.4362 79.3626C25.4665 79.2776 25.4736 79.1858 25.4569 79.097C25.4197 79.0142 25.3589 78.9448 25.2825 78.8979C24.7705 78.5532 24.1934 78.3219 23.5885 78.2189Z" fill="#1D1617"/>
<path d="M20.0259 81.3211C20.0259 81.3211 20.221 80.7869 21.0281 80.6361C21.649 80.5184 22.7428 80.9831 23.4228 81.5414C23.4868 81.5953 23.537 81.6643 23.569 81.7424C23.601 81.8205 23.6139 81.9054 23.6067 81.9897C23.5994 82.0741 23.5721 82.1553 23.5272 82.2265C23.4823 82.2977 23.4211 82.3567 23.3489 82.3984V82.3984C23.2561 82.4525 23.1489 82.4753 23.0427 82.4634C22.9365 82.4514 22.8367 82.4054 22.7576 82.332C22.0091 81.6476 21.0302 81.2853 20.0259 81.3211V81.3211Z" fill="#1D1617"/>
<path d="M18.1072 82.4166C18.2412 82.2238 18.4184 82.0664 18.6242 81.9578C18.8299 81.8491 19.0581 81.7922 19.2898 81.792C19.2898 81.792 20.9069 81.8403 21.9092 82.7909C21.9702 82.8433 22.018 82.9099 22.0485 82.9851C22.079 83.0604 22.0912 83.142 22.0843 83.2231C22.0773 83.3042 22.0513 83.3824 22.0085 83.4511C21.9657 83.5198 21.9073 83.5769 21.8382 83.6177V83.6177C21.7504 83.6675 21.6496 83.6879 21.5498 83.676C21.4501 83.6641 21.3565 83.6205 21.2824 83.5513C20.8697 83.1323 20.3703 82.8128 19.8208 82.6165C19.2714 82.4202 18.6859 82.3519 18.1072 82.4166Z" fill="#1D1617"/>
<path d="M15.9876 83.4062C16.142 83.2272 16.3322 83.0841 16.5454 82.9868C16.7586 82.8894 16.9899 82.84 17.2234 82.8418C17.2234 82.8418 18.7312 82.8992 19.7305 83.8498C19.7923 83.9016 19.8408 83.9679 19.872 84.0431C19.9031 84.1183 19.9158 84.2001 19.9092 84.2814C19.9025 84.3628 19.8765 84.4412 19.8336 84.5101C19.7906 84.5789 19.7319 84.6361 19.6625 84.6766V84.6766C19.5741 84.7262 19.4728 84.7465 19.3727 84.7346C19.2725 84.7227 19.1785 84.6792 19.1037 84.6102C18.7119 84.1758 18.2262 83.8408 17.6853 83.6318C17.1443 83.4227 16.563 83.3455 15.9876 83.4062Z" fill="#1D1617"/>
<path opacity="0.3" d="M20.0259 81.3211C20.0259 81.3211 20.221 80.7869 21.0281 80.6361C21.649 80.5184 22.7428 80.9831 23.4228 81.5414C23.4868 81.5953 23.537 81.6643 23.569 81.7424C23.601 81.8205 23.6139 81.9054 23.6067 81.9897C23.5994 82.0741 23.5721 82.1553 23.5272 82.2265C23.4823 82.2977 23.4211 82.3567 23.3489 82.3984V82.3984C23.2561 82.4525 23.1489 82.4753 23.0427 82.4634C22.9365 82.4514 22.8367 82.4054 22.7576 82.332C22.0091 81.6476 21.0302 81.2853 20.0259 81.3211V81.3211Z" fill="black"/>
<path opacity="0.3" d="M18.1072 82.4166C18.2412 82.2238 18.4184 82.0664 18.6242 81.9578C18.8299 81.8491 19.0581 81.7922 19.2898 81.792C19.2898 81.792 20.9069 81.8403 21.9092 82.7909C21.9702 82.8433 22.018 82.9099 22.0485 82.9851C22.079 83.0604 22.0912 83.142 22.0843 83.2231C22.0773 83.3042 22.0513 83.3824 22.0085 83.4511C21.9657 83.5198 21.9073 83.5769 21.8382 83.6177V83.6177C21.7504 83.6675 21.6496 83.6879 21.5498 83.676C21.4501 83.6641 21.3565 83.6205 21.2824 83.5513C20.8697 83.1323 20.3703 82.8128 19.8208 82.6165C19.2714 82.4202 18.6859 82.3519 18.1072 82.4166Z" fill="black"/>
<path opacity="0.3" d="M15.9876 83.4062C16.142 83.2272 16.3322 83.0841 16.5454 82.9868C16.7586 82.8894 16.9899 82.84 17.2234 82.8418C17.2234 82.8418 18.7312 82.8992 19.7305 83.8498C19.7923 83.9016 19.8408 83.9679 19.872 84.0431C19.9031 84.1183 19.9158 84.2001 19.9092 84.2814C19.9025 84.3628 19.8765 84.4412 19.8336 84.5101C19.7906 84.5789 19.7319 84.6361 19.6625 84.6766V84.6766C19.5741 84.7262 19.4728 84.7465 19.3727 84.7346C19.2725 84.7227 19.1785 84.6792 19.1037 84.6102C18.7119 84.1758 18.2262 83.8408 17.6853 83.6318C17.1443 83.4227 16.563 83.3455 15.9876 83.4062Z" fill="black"/>
<path d="M24.3099 49.8191C28.5375 48.8504 38.6337 46.6958 38.6337 46.6958L38.4711 43.9436C42.1223 45.8749 49.8179 45.3287 53.3656 42.4619L53.9243 45.38C55.2695 47.0238 56.4343 48.8129 57.3981 50.7153C58.2082 52.3539 59.5622 54.9099 58.2141 60.8639C57.4218 64.3614 56.3663 73.5684 56.3663 73.5684L66.7138 69.6756C66.7138 69.6756 67.6008 69.8295 68.3517 71.8091C68.7951 72.9799 68.943 74.1055 68.4936 74.688C64.7094 77.7389 58.5778 82.7211 52.3811 85.5155C48.2421 87.133 46.0425 83.5811 45.8415 82.2654C45.0639 77.2258 44.1681 61.0329 44.1681 61.0329L30.3321 60.5832C30.7903 63.2569 28.9278 73.7042 28.9278 73.7042C28.9278 73.7042 25.522 75.213 22.7016 73.668C22.7016 73.668 20.8154 61.6455 20.6321 57.6349C20.4458 53.1627 20.2211 50.7576 24.3099 49.8191Z" fill="#1D1617"/>
<path opacity="0.15" d="M30.3321 60.5834C30.3321 59.8622 29.862 57.3424 28.2626 55.9995C28.2626 55.9995 30.4562 56.4009 31.4614 60.6196L30.3321 60.5834Z" fill="black"/>
<path opacity="0.15" d="M56.3664 73.5686C56.3664 73.5686 56.0708 77.5429 55.3258 79.4803C55.3258 79.4803 57.1913 76.0401 57.3953 73.1763L56.3664 73.5686Z" fill="black"/>
<path opacity="0.15" d="M38.6367 46.6961L38.4741 43.947C42.1253 45.8753 49.8179 45.3291 53.3626 42.4653L53.9214 45.3804C53.8918 45.4076 51.6154 47.8097 45.6966 48.1205C39.7779 48.4313 38.6367 46.6961 38.6367 46.6961Z" fill="black"/>
<path opacity="0.15" d="M44.1562 61.0333C44.2052 59.5396 44.5513 58.0716 45.1734 56.7187C45.7955 55.3657 46.6806 54.156 47.7749 53.1631C47.7749 53.1631 44.5938 54.6719 43.5295 59.449C43.5295 59.449 41.1643 58.3234 39.9286 54.9496C39.9286 54.9496 40.307 58.3234 42.2109 60.2426L36.4725 60.7828L44.1562 61.0333Z" fill="black"/>
<path d="M46.001 1.20688e-05C47.2156 -0.00197107 48.4188 0.240466 49.5415 0.713459C50.6643 1.18645 51.6847 1.88072 52.5444 2.75657C53.4042 3.63241 54.0863 4.67265 54.5518 5.81779C55.0174 6.96293 55.2572 8.19052 55.2576 9.43034V9.43034C55.2576 10.6704 55.018 11.8983 54.5527 13.0438C54.0873 14.1893 53.4052 15.2299 52.5455 16.1061C51.6857 16.9822 50.6652 17.6768 49.5422 18.1499C48.4193 18.6231 47.2159 18.8657 46.001 18.8637V18.8637C43.5528 18.8597 41.2062 17.864 39.4767 16.0952C37.7472 14.3265 36.7762 11.9293 36.777 9.43034V9.43034C36.777 6.93187 37.7483 4.53552 39.4777 2.76742C41.2071 0.999323 43.5533 0.00400961 46.001 1.20688e-05V1.20688e-05Z" fill="#263238"/>
<path d="M55.6539 5.73377C55.3198 5.71816 54.985 5.73737 54.6547 5.79111C54.5427 5.79862 54.4374 5.84805 54.359 5.92992C54.3135 5.99763 54.2879 6.0772 54.2851 6.15926C54.2088 6.68318 54.2565 7.21813 54.4241 7.71942C54.5541 8.06947 54.9592 8.24752 55.2164 8.501C56.2156 9.49081 56.2955 11.1294 55.9023 12.4904C55.5091 13.8514 54.7197 15.0645 54.2082 16.3802C53.6968 17.6959 53.4248 19.2802 54.1491 20.605C54.43 21.112 54.9414 21.5103 54.8793 22.1139C54.8084 22.8532 54.1757 23.5593 53.9037 24.2263C53.6052 25.0163 53.5036 25.8698 53.6081 26.7098C53.6829 27.7543 54.0629 28.7519 54.699 29.5736C55.1852 30.152 55.8129 30.5885 56.5181 30.8387C57.2234 31.0889 57.981 31.1439 58.7138 30.998C59.0228 30.943 59.3152 30.8159 59.5682 30.6268C60.0028 30.2707 60.1773 29.6883 60.4138 29.1723C61.1736 27.5035 62.7789 26.2904 63.2667 24.519C63.7959 22.6329 62.9149 20.6714 61.8329 19.069C61.3273 18.3206 60.7626 17.5873 60.5143 16.7122C60.1802 15.5323 60.4729 14.2769 60.5498 13.0487C60.6231 11.849 60.488 10.6455 60.1506 9.49383C59.9082 8.66094 59.5328 7.70131 58.8971 7.10381C58.0051 6.27599 56.8582 5.7915 55.6539 5.73377Z" fill="#263238"/>
<path d="M40.2243 4.31543C39.2132 4.93406 37.9685 7.54437 38.1134 13.0064C38.2375 17.6356 39.7128 18.7733 40.4519 19.1022C41.191 19.4311 42.616 19.2199 43.9996 18.9785V21.7578C43.9996 21.7578 42.0957 24.0331 42.2257 25.3096C42.3558 26.5861 44.993 26.8728 46.7786 25.6114C48.5643 24.35 50.0632 21.9268 50.0632 21.9268L50.0041 15.5353C50.0041 15.5353 50.8289 16.35 52.2096 15.1128C53.3419 14.0898 53.7203 12.3727 52.8275 11.4674C51.9346 10.5621 50.2938 10.8065 49.6671 12.1222C49.6671 12.1222 47.4616 12.2128 44.514 10.5772C43.3673 9.95078 42.3814 9.05742 41.6361 7.96951C40.8908 6.8816 40.4071 5.62975 40.2243 4.31543V4.31543Z" fill="#FFEDE5"/>
<path d="M43.1747 11.8235C43.1742 11.9379 43.2067 12.05 43.2682 12.1456C43.3297 12.2413 43.4174 12.3163 43.5204 12.3614C43.6234 12.4065 43.7372 12.4197 43.8474 12.3992C43.9577 12.3787 44.0596 12.3256 44.1405 12.2463C44.2213 12.1671 44.2775 12.0653 44.3021 11.9537C44.3266 11.8421 44.3184 11.7255 44.2785 11.6186C44.2385 11.5117 44.1686 11.4192 44.0775 11.3526C43.9864 11.286 43.878 11.2483 43.766 11.2441C43.6132 11.244 43.4663 11.3043 43.3561 11.4123C43.2458 11.5203 43.1809 11.6677 43.1747 11.8235Z" fill="#263238"/>
<g style="mix-blend-mode:multiply" opacity="0.5">
<g style="mix-blend-mode:multiply" opacity="0.5">
<path d="M43.0448 15.7495L41.7233 16.1841C41.7473 16.2746 41.789 16.3593 41.8459 16.433C41.9028 16.5067 41.9736 16.5679 42.0543 16.613C42.1349 16.6581 42.2236 16.6861 42.315 16.6954C42.4065 16.7046 42.4988 16.6949 42.5866 16.6669C42.7648 16.6048 42.9123 16.4743 42.9979 16.303C43.0834 16.1318 43.1002 15.9332 43.0448 15.7495Z" fill="#F28F8F"/>
</g>
</g>
<path d="M38.4889 10.0551L39.6389 9.23431C39.5907 9.15482 39.5271 9.08623 39.452 9.03277C39.3769 8.97931 39.2919 8.94211 39.2021 8.92345C39.1124 8.9048 39.0199 8.90508 38.9303 8.92429C38.8407 8.9435 38.7558 8.98122 38.681 9.03514C38.5283 9.1486 38.4235 9.31706 38.3878 9.50643C38.3521 9.6958 38.3882 9.89193 38.4889 10.0551Z" fill="#263238"/>
<path d="M38.7609 11.4192C38.7599 11.5337 38.7919 11.646 38.853 11.742C38.9141 11.8381 39.0016 11.9136 39.1046 11.9592C39.2075 12.0047 39.3213 12.0183 39.4318 11.9982C39.5422 11.978 39.6444 11.9251 39.7256 11.846C39.8067 11.7669 39.8632 11.6651 39.888 11.5534C39.9128 11.4417 39.9048 11.3251 39.8649 11.218C39.8251 11.1109 39.7552 11.0182 39.664 10.9515C39.5728 10.8847 39.4644 10.8469 39.3522 10.8428C39.1999 10.8426 39.0534 10.9025 38.9433 11.0098C38.8331 11.1172 38.7678 11.2638 38.7609 11.4192Z" fill="#263238"/>
<g style="mix-blend-mode:multiply" opacity="0.5">
<g style="mix-blend-mode:multiply" opacity="0.5">
<path d="M41.4512 11.0752L41.3743 14.5818L39.565 14.0175L41.4512 11.0752Z" fill="#F28F8F"/>
</g>
</g>
<g style="mix-blend-mode:multiply" opacity="0.5">
<g style="mix-blend-mode:multiply" opacity="0.5">
<path d="M43.9968 18.9784C45.4572 18.7792 48.4551 17.886 48.9163 16.6729C48.7305 17.2859 48.3653 17.8261 47.8697 18.2209C46.9768 19.0116 44.0027 19.9169 44.0027 19.9169L43.9968 18.9784Z" fill="#F28F8F"/>
</g>
</g>
<path d="M53.9274 21.7876C56.7892 21.9958 57.9689 22.367 59.5624 25.9762C60.9962 29.2202 64.4257 37.6155 65.283 39.4864C66.1404 41.3574 66.303 42.1088 65.5787 44.0673C64.9874 45.6637 60.1566 54.8345 59.6274 56.1713C59.0982 57.5082 58.8647 58.8601 57.9629 60.4172C57.0612 61.9744 55.6362 63.4953 54.5098 63.8544C52.8395 64.3885 50.6665 63.6462 50.6044 62.6171C50.5423 61.5881 53.0553 59.871 53.7382 57.5866C53.2837 57.8914 52.8051 58.1569 52.3073 58.3803C51.6303 58.6639 50.8734 58.6006 50.6488 58.2083C50.4241 57.816 51.1011 57.5776 51.7042 56.965C52.0649 56.5998 52.7035 55.779 53.5194 55.0548C54.0723 54.5659 54.977 54.4211 55.3849 53.8839C55.6037 53.5972 56.5971 51.1136 57.3451 48.9017C58.2675 46.1586 59.4825 42.5072 59.4825 42.5072L54.5098 31.9452C54.5098 31.9452 50.6103 27.9739 53.9274 21.7876Z" fill="#FFEDE5"/>
<path d="M59.6361 56.1717C59.6361 56.1717 58.492 53.8089 55.3937 53.8843L56.2126 52.0254C56.2126 52.0254 59.237 52.2427 60.5112 54.3339L59.6361 56.1717Z" fill="#37474F"/>
<path d="M59.9701 54.1648L59.3049 55.1274C59.2568 55.1974 59.1953 55.2568 59.1242 55.302C59.053 55.3472 58.9737 55.3773 58.891 55.3906C58.8082 55.4038 58.7236 55.3999 58.6424 55.3791C58.5611 55.3582 58.4848 55.3209 58.418 55.2693L57.2354 54.364C57.098 54.2565 57.0058 54.0996 56.9778 53.9252C56.9498 53.7508 56.988 53.5721 57.0846 53.4255L57.7025 52.496C57.749 52.4243 57.8093 52.363 57.8798 52.3158C57.9502 52.2686 58.0294 52.2365 58.1123 52.2216C58.1953 52.2066 58.2804 52.209 58.3624 52.2287C58.4445 52.2484 58.5217 52.2849 58.5895 52.3361L59.843 53.2414C59.9795 53.3469 60.0695 53.5032 60.0933 53.6763C60.1171 53.8494 60.0728 54.025 59.9701 54.1648V54.1648Z" fill="#263238"/>
<path d="M60.192 54.1406L59.5209 55.1032C59.4725 55.1729 59.4109 55.2319 59.3397 55.2769C59.2686 55.3219 59.1894 55.3518 59.1067 55.3651C59.0241 55.3783 58.9396 55.3745 58.8584 55.3539C58.7772 55.3332 58.7009 55.2962 58.6339 55.245L57.4514 54.3397C57.314 54.2323 57.2218 54.0756 57.1932 53.9014C57.1647 53.7272 57.202 53.5484 57.2976 53.4012L57.9155 52.4718C57.9623 52.4004 58.0227 52.3394 58.0932 52.2924C58.1637 52.2455 58.2427 52.2136 58.3256 52.1987C58.4084 52.1837 58.4934 52.1861 58.5753 52.2055C58.6573 52.225 58.7346 52.2611 58.8025 52.3118L60.056 53.2322C60.1903 53.3356 60.2797 53.4884 60.3051 53.6582C60.3305 53.8279 60.2899 54.001 60.192 54.1406Z" fill="#455A64"/>
<path d="M57.4188 53.8238C57.4337 53.9432 57.4943 54.0516 57.5873 54.1256L58.7699 55.0309C58.811 55.0644 58.8586 55.0884 58.9096 55.1014C58.9606 55.1145 59.0138 55.1161 59.0655 55.1063C59.1162 55.0983 59.1648 55.0801 59.2085 55.0526C59.2521 55.0251 59.29 54.989 59.3198 54.9464L59.9938 53.9807C60.0507 53.9005 60.076 53.8014 60.0648 53.7031C60.0608 53.6434 60.0438 53.5854 60.0152 53.5332C59.9866 53.4811 59.947 53.436 59.8992 53.4013L58.6457 52.496C58.6038 52.4643 58.5559 52.4417 58.505 52.4297C58.4541 52.4178 58.4013 52.4167 58.35 52.4266C58.2994 52.4357 58.2511 52.4551 58.2079 52.4836C58.1648 52.5121 58.1276 52.5492 58.0987 52.5926L57.4809 53.522C57.4229 53.6108 57.3977 53.7178 57.4099 53.8238H57.4188Z" fill="#1D1617"/>
</svg>
